<?xml version="1.0" encoding="utf-8"?>
<svg xmlns="http://www.w3.org/2000/svg" version="1.1" viewBox="0 0 100 100">
	<path d="M 49.333918,99.635912 C 49.18877,99.43566 48.163534,98.095728 47.055617,96.658284 42.595483,90.871569 23.408515,62.98846 3.8224865,33.830523 L 0,28.139949 0.02119429,23.640424 C 0.04002776,19.642992 0.12139631,18.84555 0.75039978,16.49412 2.5423462,9.7951949 6.4580584,4.7397494 11.933588,2.0558778 14.597206,0.75028523 16.589015,0.2281906 19.626133,0.03950278 28.784614,-0.5294887 38.487207,5.0856435 44.553781,14.465754 c 2.412724,3.730547 4.612421,9.205405 5.095251,12.681652 0.08593,0.618685 0.23216,1.124881 0.324951,1.124881 0.09279,0 0.320506,-0.798429 0.506032,-1.774287 1.472254,-7.743998 6.706429,-16.029499 13.257227,-20.9856873 2.330441,-1.7631605 7.071089,-4.1024354 9.736704,-4.80458159 2.825641,-0.74429861 8.20895,-0.80746585 10.743036,-0.12605736 7.391295,1.98749705 12.850152,7.77616035 15.037847,15.94637925 0.619047,2.31192 0.702245,3.131062 0.722376,7.112371 l 0.02282,4.499525 -2.372395,3.440812 C 71.973607,68.787975 50.135428,100 49.75657,100 49.66928,100 49.4791,99.836155 49.333955,99.635912 Z"/>
</svg>
